<svg width="40" height="40" viewBox="0 0 40 40" fill="none" xmlns="http://www.w3.org/2000/svg">
<g filter="url(#filter0_d_1603_5470)">
<rect width="37" height="37" rx="18.5" fill="white"/>
</g>
<path d="M18.4397 15.4454C16.6897 15.4454 15.2952 16.8673 15.2952 18.59C15.2952 20.34 16.6897 21.7345 18.4397 21.7345C20.1624 21.7345 21.5842 20.34 21.5842 18.59C21.5842 16.8673 20.1624 15.4454 18.4397 15.4454ZM18.4397 20.6407C17.3186 20.6407 16.3889 19.7384 16.3889 18.59C16.3889 17.4689 17.2913 16.5665 18.4397 16.5665C19.5608 16.5665 20.4632 17.4689 20.4632 18.59C20.4632 19.7384 19.5608 20.6407 18.4397 20.6407ZM22.4319 15.3361C22.4319 14.9259 22.1038 14.5978 21.6936 14.5978C21.2835 14.5978 20.9553 14.9259 20.9553 15.3361C20.9553 15.7462 21.2835 16.0743 21.6936 16.0743C22.1038 16.0743 22.4319 15.7462 22.4319 15.3361ZM24.51 16.0743C24.4553 15.09 24.2366 14.215 23.5257 13.504C22.8147 12.7931 21.9397 12.5743 20.9553 12.5197C19.9436 12.465 16.9085 12.465 15.8967 12.5197C14.9124 12.5743 14.0647 12.7931 13.3264 13.504C12.6155 14.215 12.3967 15.09 12.3421 16.0743C12.2874 17.0861 12.2874 20.1212 12.3421 21.1329C12.3967 22.1173 12.6155 22.965 13.3264 23.7032C14.0647 24.4142 14.9124 24.6329 15.8967 24.6876C16.9085 24.7423 19.9436 24.7423 20.9553 24.6876C21.9397 24.6329 22.8147 24.4142 23.5257 23.7032C24.2366 22.965 24.4553 22.1173 24.51 21.1329C24.5647 20.1212 24.5647 17.0861 24.51 16.0743ZM23.1975 22.1993C23.0061 22.7462 22.5686 23.1564 22.0491 23.3751C21.2288 23.7032 19.3147 23.6212 18.4397 23.6212C17.5374 23.6212 15.6233 23.7032 14.8303 23.3751C14.2835 23.1564 13.8733 22.7462 13.6546 22.1993C13.3264 21.4064 13.4085 19.4923 13.4085 18.59C13.4085 17.715 13.3264 15.8009 13.6546 14.9806C13.8733 14.4611 14.2835 14.0509 14.8303 13.8322C15.6233 13.504 17.5374 13.5861 18.4397 13.5861C19.3147 13.5861 21.2288 13.504 22.0491 13.8322C22.5686 14.0236 22.9788 14.4611 23.1975 14.9806C23.5257 15.8009 23.4436 17.715 23.4436 18.59C23.4436 19.4923 23.5257 21.4064 23.1975 22.1993Z" fill="#C32E96"/>
<defs>
<filter id="filter0_d_1603_5470" x="0" y="0" width="40" height="40" filterUnits="userSpaceOnUse" color-interpolation-filters="sRGB">
<feFlood flood-opacity="0" result="BackgroundImageFix"/>
<feColorMatrix in="SourceAlpha" type="matrix" values="0 0 0 0 0 0 0 0 0 0 0 0 0 0 0 0 0 0 127 0" result="hardAlpha"/>
<feOffset dx="3" dy="3"/>
<feColorMatrix type="matrix" values="0 0 0 0 0 0 0 0 0 0 0 0 0 0 0 0 0 0 0.25 0"/>
<feBlend mode="normal" in2="BackgroundImageFix" result="effect1_dropShadow_1603_5470"/>
<feBlend mode="normal" in="SourceGraphic" in2="effect1_dropShadow_1603_5470" result="shape"/>
</filter>
</defs>
</svg>
