<svg width="40" height="40" viewBox="0 0 40 40" fill="none" xmlns="http://www.w3.org/2000/svg">
<g filter="url(#filter0_d_1603_5459)">
<rect x="-6.10352e-05" width="37" height="37" rx="18.5" fill="white"/>
</g>
<path d="M23.9704 17.0645C24.4782 16.6836 24.9353 16.2266 25.2907 15.6934C24.8337 15.8965 24.3005 16.0488 23.7673 16.0996C24.3259 15.7695 24.7321 15.2617 24.9353 14.627C24.4274 14.9316 23.8435 15.1602 23.2595 15.2871C22.7517 14.7539 22.0661 14.4492 21.3044 14.4492C19.8317 14.4492 18.6384 15.6426 18.6384 17.1152C18.6384 17.3184 18.6638 17.5215 18.7146 17.7246C16.5056 17.5977 14.5251 16.5312 13.2048 14.9316C12.9763 15.3125 12.8493 15.7695 12.8493 16.2773C12.8493 17.1914 13.3064 18.0039 14.0427 18.4863C13.611 18.4609 13.1794 18.3594 12.8239 18.1562V18.1816C12.8239 19.4766 13.738 20.543 14.9567 20.7969C14.7536 20.8477 14.4997 20.8984 14.2712 20.8984C14.0935 20.8984 13.9411 20.873 13.7634 20.8477C14.0935 21.9141 15.0837 22.6758 16.2517 22.7012C15.3376 23.4121 14.195 23.8438 12.9509 23.8438C12.7224 23.8438 12.5192 23.8184 12.3161 23.793C13.4841 24.5547 14.8806 24.9863 16.404 24.9863C21.3044 24.9863 23.9704 20.9492 23.9704 17.4199C23.9704 17.293 23.9704 17.1914 23.9704 17.0645Z" fill="#1C9DEC"/>
<defs>
<filter id="filter0_d_1603_5459" x="-6.10352e-05" y="0" width="40" height="40" filterUnits="userSpaceOnUse" color-interpolation-filters="sRGB">
<feFlood flood-opacity="0" result="BackgroundImageFix"/>
<feColorMatrix in="SourceAlpha" type="matrix" values="0 0 0 0 0 0 0 0 0 0 0 0 0 0 0 0 0 0 127 0" result="hardAlpha"/>
<feOffset dx="3" dy="3"/>
<feColorMatrix type="matrix" values="0 0 0 0 0 0 0 0 0 0 0 0 0 0 0 0 0 0 0.25 0"/>
<feBlend mode="normal" in2="BackgroundImageFix" result="effect1_dropShadow_1603_5459"/>
<feBlend mode="normal" in="SourceGraphic" in2="effect1_dropShadow_1603_5459" result="shape"/>
</filter>
</defs>
</svg>
